<?xml version="1.0" encoding="iso-8859-1"?>
<!-- Generator: Adobe Illustrator 19.0.0, SVG Export Plug-In . SVG Version: 6.00 Build 0)  -->
<svg version="1.1" id="Capa_1" xmlns="http://www.w3.org/2000/svg" xmlns:xlink="http://www.w3.org/1999/xlink" x="0px" y="0px"
	 viewBox="0 0 475.13 475.13" style="enable-background:new 0 0 475.13 475.13;" xml:space="preserve">
<g>
	<g>
		<path d="M237.572,13.564c-70.692,0-128,57.308-128,128v64c0.031,16.458,3.237,32.756,9.44,48
			c-63.341,36.163-106.923,99.037-118.56,171.04c-2.942,17.427,8.8,33.939,26.226,36.881c0.164,0.028,0.329,0.054,0.494,0.079h4.96
			c15.904,0.192,29.536-11.326,32-27.04c8.883-55.34,43.414-103.22,93.12-129.12c55.042,44.36,135.623,35.7,179.983-19.343
			c18.376-22.801,28.378-51.213,28.337-80.497v-64C365.572,70.871,308.264,13.564,237.572,13.564z M301.572,205.564
			c0,35.346-28.654,64-64,64c-35.346,0-64-28.654-64-64v-64c0-35.346,28.654-64,64-64c35.346,0,64,28.654,64,64V205.564z"/>
	</g>
</g>
<g>
	<g>
		<path d="M474.692,424.604c-8.219-51.543-32.919-99.036-70.4-135.36c-13.253-11.692-33.475-10.426-45.166,2.827
			c-10.929,12.388-10.631,31.059,0.686,43.093c27.49,26.616,45.621,61.419,51.68,99.2c2.464,15.714,16.096,27.232,32,27.04h4.96
			C465.847,458.467,477.584,442.006,474.692,424.604z"/>
	</g>
</g>
<g>
</g>
<g>
</g>
<g>
</g>
<g>
</g>
<g>
</g>
<g>
</g>
<g>
</g>
<g>
</g>
<g>
</g>
<g>
</g>
<g>
</g>
<g>
</g>
<g>
</g>
<g>
</g>
<g>
</g>
</svg>
