<svg viewBox="0 0 512 512" xmlns="http://www.w3.org/2000/svg" xmlns:xlink="http://www.w3.org/1999/xlink"><linearGradient id="a" gradientTransform="matrix(1 0 0 -1 0 -17294)" gradientUnits="userSpaceOnUse" x1="0" x2="512" y1="-17550" y2="-17550"><stop offset="0" stop-color="#00f1ff"/><stop offset=".231" stop-color="#00d8ff"/><stop offset=".5138" stop-color="#00c0ff"/><stop offset=".7773" stop-color="#00b2ff"/><stop offset="1" stop-color="#00adff"/></linearGradient><path d="m512 256c0 141.386719-114.613281 256-256 256s-256-114.613281-256-256 114.613281-256 256-256 256 114.613281 256 256zm0 0" fill="url(#a)"/><g fill="#fff"><path d="m389.855469 347.085938c0 7.582031-6.144531 13.726562-13.726563 13.726562-7.585937 0-13.730468-6.144531-13.730468-13.726562 0-7.585938 6.144531-13.730469 13.730468-13.730469 7.582032 0 13.726563 6.144531 13.726563 13.730469zm0 0"/><path d="m422.378906 300.304688c-6.082031-13.601563-19.773437-22.414063-34.917968-22.449219h-42.808594c-.035156 0-.0625 0-.097656 0-15.976563 0-29.914063 9.421875-35.527344 24.023437-.648438 1.6875-1.429688 3.773438-2.25 6.179688h-88.972656c-4.054688 0-7.9375 1.640625-10.761719 4.550781l-23.585938 24.292969c-5.675781 5.84375-5.644531 15.152344.066407 20.964844l24.023437 24.445312c2.820313 2.867188 6.675781 4.484375 10.699219 4.484375h44.617187c8.285157 0 15-6.71875 15-15 0-8.285156-6.714843-15-15-15h-38.328125l-9.347656-9.511719 8.960938-9.226562h93.839843c6.910157 0 12.925781-4.722656 14.570313-11.433594 1.097656-4.476562 2.476562-8.789062 4.472656-13.984375 1.132812-2.953125 4.019531-4.785156 7.5625-4.785156h.023438 42.8125c3.375.007812 6.269531 1.804687 7.5625 4.691406 3.636718 8.132813 7.976562 20.71875 8.007812 34.480469.03125 13.875-4.304688 26.75-7.953125 35.113281-1.285156 2.953125-4.199219 4.855469-7.457031 4.855469-.007813 0-.015625 0-.023438 0h-43.328125c-3.289062-.007813-6.375-2.136719-7.679687-5.292969-1.578125-3.832031-2.949219-8.214844-4.191406-13.402344-1.929688-8.054687-10.023438-13.023437-18.082032-11.09375-8.054687 1.929688-13.023437 10.023438-11.09375 18.078125 1.609375 6.726563 3.453125 12.566406 5.632813 17.855469 5.964843 14.453125 19.835937 23.820313 35.378906 23.855469h43.328125.089844c15.164062 0 28.863281-8.96875 34.925781-22.867188 4.792969-10.992187 10.496094-28.101562 10.453125-47.171875-.046875-19.019531-5.800781-35.867187-10.621094-46.652343zm0 0"/><path d="m170.539062 387h-48.605468c-5.335938 0-8.550782-2.980469-9.996094-4.753906-2.496094-3.066406-3.460938-7.0625-2.648438-10.964844 14.132813-67.894531 74.046876-117.476562 143.214844-119.101562 1.160156.042968 2.324219.074218 3.496094.074218 1.179688 0 2.355469-.03125 3.527344-.074218 16.90625.386718 33.421875 3.566406 49.140625 9.46875 7.757812 2.914062 16.402343-1.015626 19.316406-8.769532 2.910156-7.757812-1.015625-16.402344-8.769531-19.316406-1.542969-.578125-3.097656-1.128906-4.652344-1.664062 21.953125-17.34375 36.0625-44.191407 36.0625-74.273438 0-52.179688-42.449219-94.628906-94.625-94.628906-52.179688 0-94.628906 42.449218-94.628906 94.628906 0 30.109375 14.136718 56.976562 36.121094 74.320312-20.148438 6.929688-39.058594 17.410157-55.679688 31.082032-31.617188 26.003906-53.597656 62.277344-61.898438 102.140625-2.65625 12.777343.527344 25.902343 8.746094 36.007812 8.179688 10.054688 20.304688 15.820313 33.273438 15.820313h48.601562c8.285156 0 15-6.714844 15-15 0-8.28125-6.714844-14.996094-14.996094-14.996094zm20.832032-229.375c0-35.636719 28.992187-64.625 64.628906-64.625s64.628906 28.988281 64.628906 64.625c0 34.585938-27.308594 62.90625-61.492187 64.546875-1.042969-.015625-2.089844-.035156-3.136719-.035156-1.050781 0-2.101562.015625-3.148438.035156-34.179687-1.648437-61.480468-29.96875-61.480468-64.546875zm0 0"/></g></svg>